<?xml version="1.0" encoding="UTF-8"?>
<svg version="1.1" xmlns="http://www.w3.org/2000/svg" width="600" height="200">
<path d="M0 0 C0 30.36 0 60.72 0 92 C-3.66319996 92.61053333 -6.82084295 93.12781036 -10.44805861 93.27167517 C-11.28933719 93.30689106 -12.13061577 93.34210695 -12.99738765 93.37838998 C-14.36352226 93.42979938 -14.36352226 93.42979938 -15.75725555 93.48224735 C-16.73924101 93.52223379 -17.72122646 93.56222023 -18.73296905 93.60341838 C-22.03729934 93.7370344 -25.3418184 93.86520724 -28.6463623 93.99342346 C-31.03396009 94.08883368 -33.42154461 94.18457641 -35.80911684 94.28062385 C-41.00750835 94.48897184 -46.20598836 94.69494668 -51.40455627 94.89883995 C-59.13538666 95.20206042 -66.86603974 95.50962973 -74.59666347 95.81806854 C-88.40512882 96.36885977 -102.21376291 96.91532326 -116.02247082 97.45999561 C-128.11160275 97.93685751 -140.20067421 98.41521873 -152.28968811 98.8950634 C-153.09132506 98.92688064 -153.89296201 98.95869787 -154.71889098 98.99147927 C-157.97301553 99.12063903 -161.22713978 99.24980636 -164.48126359 99.37898468 C-195.02168226 100.59132366 -225.56226859 101.7993902 -256.10293666 103.00542838 C-283.22565264 104.07651612 -310.34823525 105.15091973 -337.47070312 106.22827148 C-344.41153668 106.50396984 -351.35237034 106.77966537 -358.29320526 107.05532932 C-359.57501924 107.10623839 -359.57501924 107.10623839 -360.88272845 107.15817593 C-383.55096252 108.0584277 -406.21929962 108.9560771 -428.88766909 109.85291237 C-431.32802314 109.94946333 -433.76837716 110.04601503 -436.20873113 110.14256797 C-437.82757185 110.20661721 -439.44641264 110.2706645 -441.06525351 110.33470982 C-452.34060059 110.78081303 -463.61590636 111.22794779 -474.8911842 111.67579751 C-489.42954731 112.25325531 -503.96797957 112.82891838 -518.50653881 113.4014184 C-526.19107164 113.70407346 -533.87554151 114.00822908 -541.55992761 114.31458738 C-547.30479993 114.54344767 -553.04978387 114.7693962 -558.79481512 114.99422788 C-561.11388468 115.08542899 -563.43291805 115.17755605 -565.75190967 115.27071781 C-568.91318336 115.39757436 -572.0745742 115.52099092 -575.23601532 115.64359379 C-576.1280424 115.68020789 -577.02006948 115.71682198 -577.93912768 115.7545456 C-585.30879351 116.034445 -592.60642635 116 -600 116 C-600 85.64 -600 55.28 -600 24 C-598.68 24 -597.36 24 -596 24 C-596 23.34 -596 22.68 -596 22 C-595.4336005 22.01057591 -594.867201 22.02115183 -594.28363788 22.03204823 C-568.87272948 22.42531531 -543.50178316 21.17535685 -518.11857295 20.14005423 C-512.06517179 19.89428038 -506.0115598 19.65384744 -499.95795094 19.41325811 C-487.59476854 18.92173774 -475.23179407 18.42516755 -462.86893082 17.9256897 C-450.63931443 17.43162872 -438.40959767 16.94016724 -426.17974472 16.45199585 C-425.41566506 16.42149622 -424.6515854 16.39099659 -423.86435181 16.35957273 C-419.98277038 16.20464949 -416.10118689 16.04977777 -412.21960245 15.89492977 C-384.80036584 14.8010405 -357.38132053 13.70242582 -329.96240234 12.60058594 C-328.30856983 12.53412773 -326.65473731 12.46766962 -325.00090478 12.40121162 C-324.1814717 12.36828312 -323.36203862 12.33535462 -322.51777423 12.30142828 C-318.37187565 12.13482777 -314.22597696 11.96822985 -310.08007812 11.80163574 C-309.25793861 11.76859929 -308.4357991 11.73556284 -307.58874627 11.70152528 C-288.46334363 10.93302386 -269.33788326 10.1659645 -250.21240234 9.39941406 C-249.39234099 9.36654483 -248.57227963 9.3336756 -247.72736793 9.29981034 C-228.99531229 8.54901528 -210.26323011 7.7988866 -191.5310955 7.05006409 C-190.74344132 7.0185767 -189.95578713 6.98708931 -189.14426463 6.95464776 C-182.0584656 6.67139053 -174.97266549 6.38815994 -167.88685976 6.10507023 C-150.24259589 5.40015066 -132.59840022 4.69359291 -114.95436632 3.98293844 C-102.67117933 3.48821004 -90.3879213 2.99528306 -78.10458542 2.50426459 C-71.45567116 2.23841177 -64.80679995 1.97155118 -58.15802383 1.70225906 C-52.06814388 1.45561221 -45.97816612 1.2115451 -39.88810192 0.9694916 C-37.68947236 0.88164608 -35.49088028 0.79285588 -33.29233171 0.70300615 C-30.29381201 0.58059735 -27.29517221 0.46168334 -24.29648018 0.34358215 C-23.030442 0.29063875 -23.030442 0.29063875 -21.73882729 0.23662579 C-14.47678284 -0.04320022 -7.2870457 0 0 0 Z " fill="#A60000" transform="translate(600,42)"/>
<path d="M0 0 C0 0.66 0 1.32 0 2 C-40.09630679 3.9717885 -80.20201968 5.72674526 -120.31055421 7.42936319 C-125.01489586 7.62923252 -129.71914976 7.83108624 -134.42337036 8.03378296 C-140.8818818 8.31182505 -147.34055047 8.58589979 -153.79935265 8.85710144 C-156.20228166 8.95856964 -158.60515816 9.06129078 -161.00797462 9.16539001 C-174.34774553 9.74214468 -187.64706875 10.15262906 -201 10 C-201 9.34 -201 8.68 -201 8 C-155.71204563 5.96281956 -110.4229876 3.94922618 -65.13040161 2.01745605 C-60.98016738 1.8403549 -56.83000649 1.66166245 -52.67990112 1.48156738 C-47.76390337 1.26833973 -42.84777155 1.05851376 -37.93152046 0.85121155 C-36.13601322 0.77497841 -34.34055297 0.69762762 -32.54514885 0.6190033 C-21.68730729 0.14449924 -10.86911262 -0.09930847 0 0 Z " fill="#7C0000" transform="translate(201,160)"/>
<path d="M0 0 C0 0.66 0 1.32 0 2 C-3.10252398 3.03417466 -5.47662566 3.21247457 -8.73526001 3.34803772 C-9.9317215 3.39989731 -11.12818298 3.4517569 -12.36090088 3.50518799 C-13.67604675 3.55769714 -14.99119263 3.6102063 -16.34619141 3.66430664 C-17.74449157 3.72320583 -19.14277618 3.78247507 -20.54104614 3.84208679 C-24.34804677 4.00319061 -28.15525692 4.15870545 -31.96254015 4.31296849 C-35.1565431 4.44290365 -38.35042924 4.57559167 -41.54431856 4.70828623 C-49.10637301 5.02243299 -56.66860138 5.33211174 -64.23095703 5.63891602 C-71.97141015 5.95301048 -79.71155928 6.2738925 -87.45158255 6.5983935 C-94.13122982 6.87822079 -100.81103867 7.15393138 -107.49098718 7.4264726 C-111.46403296 7.5885935 -115.43700952 7.75205977 -119.40983963 7.91938972 C-137.61214748 8.68405907 -155.77715455 9.21095185 -174 9 C-173.67 8.34 -173.34 7.68 -173 7 C-150.88659543 6.08656493 -128.77316197 5.17383213 -106.65969372 4.26194 C-96.39250006 3.8385357 -86.12531605 3.41489985 -75.8581543 2.99072266 C-66.91141113 2.62109778 -57.96465032 2.25190351 -49.01786786 1.88323069 C-44.27873108 1.68792844 -39.53960354 1.4924076 -34.80049706 1.29637146 C-30.34287599 1.11198595 -25.88523161 0.92817477 -21.42756844 0.7448101 C-19.78884884 0.67729934 -18.15013798 0.6095761 -16.51143646 0.54162788 C-14.27918759 0.4490998 -12.04690893 0.35732666 -9.81462097 0.26574707 C-8.56374789 0.21412666 -7.31287481 0.16250626 -6.02409649 0.10932159 C-4.01704472 0.03676634 -2.00836279 0 0 0 Z " fill="#7D0000" transform="translate(600,29)"/>
<path d="M0 0 C0.99 0 1.98 0 3 0 C3 0.99 3 1.98 3 3 C2.01 3 1.02 3 0 3 C0 2.01 0 1.02 0 0 Z " fill="#000000" transform="translate(533,174)"/>
<path d="M0 0 C0.99 0 1.98 0 3 0 C3 0.99 3 1.98 3 3 C2.01 2.67 1.02 2.34 0 2 C0 1.34 0 0.68 0 0 Z " fill="#000000" transform="translate(577,165)"/>
<path d="M0 0 C0.99 0 1.98 0 3 0 C2.67 0.99 2.34 1.98 2 3 C1.34 3 0.68 3 0 3 C0 2.01 0 1.02 0 0 Z " fill="#000000" transform="translate(542,165)"/>
<path d="M0 0 C0.66 0 1.32 0 2 0 C2 0.99 2 1.98 2 3 C1.01 3 0.02 3 -1 3 C-0.67 2.01 -0.34 1.02 0 0 Z " fill="#000000" transform="translate(23,55)"/>
<path d="M0 0 C0.99 0.33 1.98 0.66 3 1 C3 1.66 3 2.32 3 3 C2.01 3 1.02 3 0 3 C0 2.01 0 1.02 0 0 Z " fill="#000000" transform="translate(13,55)"/>
<path d="M0 0 C0.66 0.33 1.32 0.66 2 1 C2 1.66 2 2.32 2 3 C1.01 3 0.02 3 -1 3 C-0.67 2.01 -0.34 1.02 0 0 Z " fill="#000000" transform="translate(578,183)"/>
<path d="M0 0 C0.66 0.33 1.32 0.66 2 1 C2 1.66 2 2.32 2 3 C1.01 3 0.02 3 -1 3 C-0.67 2.01 -0.34 1.02 0 0 Z " fill="#000000" transform="translate(543,183)"/>
<path d="M0 0 C0.66 0.33 1.32 0.66 2 1 C2 1.66 2 2.32 2 3 C1.01 3 0.02 3 -1 3 C-0.67 2.01 -0.34 1.02 0 0 Z " fill="#000000" transform="translate(534,183)"/>
<path d="M0 0 C0.66 0 1.32 0 2 0 C2 0.99 2 1.98 2 3 C1.01 2.67 0.02 2.34 -1 2 C-0.67 1.34 -0.34 0.68 0 0 Z " fill="#000000" transform="translate(578,174)"/>
<path d="M0 0 C0.99 0.33 1.98 0.66 3 1 C2.67 1.66 2.34 2.32 2 3 C1.34 3 0.68 3 0 3 C0 2.01 0 1.02 0 0 Z " fill="#000000" transform="translate(542,174)"/>
<path d="M0 0 C0.99 0 1.98 0 3 0 C2.67 0.99 2.34 1.98 2 3 C1.34 2.67 0.68 2.34 0 2 C0 1.34 0 0.68 0 0 Z " fill="#000000" transform="translate(533,165)"/>
<path d="M0 0 C0.66 0.33 1.32 0.66 2 1 C2 1.66 2 2.32 2 3 C1.01 3 0.02 3 -1 3 C-0.67 2.01 -0.34 1.02 0 0 Z " fill="#000000" transform="translate(60,55)"/>
<path d="M0 0 C0.99 0.33 1.98 0.66 3 1 C2.67 1.66 2.34 2.32 2 3 C1.34 3 0.68 3 0 3 C0 2.01 0 1.02 0 0 Z " fill="#000000" transform="translate(50,55)"/>
<path d="M0 0 C0.99 0 1.98 0 3 0 C3 0.66 3 1.32 3 2 C2.01 2 1.02 2 0 2 C0 1.34 0 0.68 0 0 Z " fill="#000000" transform="translate(577,193)"/>
<path d="M0 0 C0.99 0 1.98 0 3 0 C3 0.66 3 1.32 3 2 C2.01 2 1.02 2 0 2 C0 1.34 0 0.68 0 0 Z " fill="#000000" transform="translate(542,193)"/>
<path d="M0 0 C0.99 0 1.98 0 3 0 C3 0.66 3 1.32 3 2 C2.01 2 1.02 2 0 2 C0 1.34 0 0.68 0 0 Z " fill="#000000" transform="translate(533,193)"/>
<path d="M0 0 C0.66 0 1.32 0 2 0 C2 0.99 2 1.98 2 3 C1.34 3 0.68 3 0 3 C0 2.01 0 1.02 0 0 Z " fill="#000000" transform="translate(569,174)"/>
<path d="M0 0 C0.66 0 1.32 0 2 0 C2 0.99 2 1.98 2 3 C1.34 3 0.68 3 0 3 C0 2.01 0 1.02 0 0 Z " fill="#000000" transform="translate(560,174)"/>
<path d="M0 0 C0.66 0 1.32 0 2 0 C2 0.99 2 1.98 2 3 C1.34 3 0.68 3 0 3 C0 2.01 0 1.02 0 0 Z " fill="#000000" transform="translate(551,174)"/>
<path d="M0 0 C0.66 0 1.32 0 2 0 C2 0.99 2 1.98 2 3 C1.34 3 0.68 3 0 3 C0 2.01 0 1.02 0 0 Z " fill="#000000" transform="translate(569,165)"/>
<path d="M0 0 C0.66 0 1.32 0 2 0 C2 0.99 2 1.98 2 3 C1.34 3 0.68 3 0 3 C0 2.01 0 1.02 0 0 Z " fill="#000000" transform="translate(560,165)"/>
<path d="M0 0 C0.66 0 1.32 0 2 0 C2 0.99 2 1.98 2 3 C1.34 3 0.68 3 0 3 C0 2.01 0 1.02 0 0 Z " fill="#000000" transform="translate(551,165)"/>
<path d="M0 0 C0.66 0 1.32 0 2 0 C2 0.99 2 1.98 2 3 C1.34 3 0.68 3 0 3 C0 2.01 0 1.02 0 0 Z " fill="#000000" transform="translate(41,55)"/>
<path d="M0 0 C0.66 0 1.32 0 2 0 C2 0.99 2 1.98 2 3 C1.34 3 0.68 3 0 3 C0 2.01 0 1.02 0 0 Z " fill="#000000" transform="translate(32,55)"/>
<path d="M0 0 C0.66 0 1.32 0 2 0 C2 0.99 2 1.98 2 3 C1.34 3 0.68 3 0 3 C0 2.01 0 1.02 0 0 Z " fill="#000000" transform="translate(4,55)"/>
<path d="M0 0 C0.99 0 1.98 0 3 0 C3 0.66 3 1.32 3 2 C2.01 2 1.02 2 0 2 C0 1.34 0 0.68 0 0 Z " fill="#000000" transform="translate(59,47)"/>
<path d="M0 0 C0.99 0 1.98 0 3 0 C3 0.66 3 1.32 3 2 C2.01 2 1.02 2 0 2 C0 1.34 0 0.68 0 0 Z " fill="#000000" transform="translate(50,47)"/>
<path d="M0 0 C0.99 0 1.98 0 3 0 C3 0.66 3 1.32 3 2 C2.01 2 1.02 2 0 2 C0 1.34 0 0.68 0 0 Z " fill="#000000" transform="translate(22,47)"/>
<path d="M0 0 C0.99 0 1.98 0 3 0 C3 0.66 3 1.32 3 2 C2.01 2 1.02 2 0 2 C0 1.34 0 0.68 0 0 Z " fill="#000000" transform="translate(13,47)"/>
<path d="M0 0 C0.99 0 1.98 0 3 0 C3 0.66 3 1.32 3 2 C2.01 2 1.02 2 0 2 C0 1.34 0 0.68 0 0 Z " fill="#000000" transform="translate(59,38)"/>
<path d="M0 0 C0.99 0 1.98 0 3 0 C3 0.66 3 1.32 3 2 C2.01 2 1.02 2 0 2 C0 1.34 0 0.68 0 0 Z " fill="#000000" transform="translate(50,38)"/>
<path d="M0 0 C0.99 0 1.98 0 3 0 C3 0.66 3 1.32 3 2 C2.01 2 1.02 2 0 2 C0 1.34 0 0.68 0 0 Z " fill="#000000" transform="translate(22,38)"/>
<path d="M0 0 C0.99 0 1.98 0 3 0 C3 0.66 3 1.32 3 2 C2.01 2 1.02 2 0 2 C0 1.34 0 0.68 0 0 Z " fill="#000000" transform="translate(13,38)"/>
<path d="M0 0 C0.99 0.495 0.99 0.495 2 1 C2 1.66 2 2.32 2 3 C1.34 3 0.68 3 0 3 C0 2.01 0 1.02 0 0 Z " fill="#000000" transform="translate(569,183)"/>
<path d="M0 0 C0.99 0.495 0.99 0.495 2 1 C2 1.66 2 2.32 2 3 C1.34 3 0.68 3 0 3 C0 2.01 0 1.02 0 0 Z " fill="#000000" transform="translate(560,183)"/>
<path d="M0 0 C0.33 0.99 0.66 1.98 1 3 C0.34 3 -0.32 3 -1 3 C-0.67 2.01 -0.34 1.02 0 0 Z " fill="#000000" transform="translate(552,183)"/>
<path d="M0 0 C0.66 0 1.32 0 2 0 C2 0.66 2 1.32 2 2 C1.34 2 0.68 2 0 2 C0 1.34 0 0.68 0 0 Z " fill="#000000" transform="translate(569,193)"/>
<path d="M0 0 C0.66 0 1.32 0 2 0 C2 0.66 2 1.32 2 2 C1.34 2 0.68 2 0 2 C0 1.34 0 0.68 0 0 Z " fill="#000000" transform="translate(560,193)"/>
<path d="M0 0 C0.66 0 1.32 0 2 0 C2 0.66 2 1.32 2 2 C1.34 2 0.68 2 0 2 C0 1.34 0 0.68 0 0 Z " fill="#000000" transform="translate(551,193)"/>
<path d="M0 0 C0.66 0 1.32 0 2 0 C2 0.66 2 1.32 2 2 C1.34 2 0.68 2 0 2 C0 1.34 0 0.68 0 0 Z " fill="#000000" transform="translate(41,47)"/>
<path d="M0 0 C0.66 0 1.32 0 2 0 C2 0.66 2 1.32 2 2 C1.34 2 0.68 2 0 2 C0 1.34 0 0.68 0 0 Z " fill="#000000" transform="translate(32,47)"/>
<path d="M0 0 C0.66 0 1.32 0 2 0 C2 0.66 2 1.32 2 2 C1.34 2 0.68 2 0 2 C0 1.34 0 0.68 0 0 Z " fill="#000000" transform="translate(4,47)"/>
<path d="M0 0 C0.66 0 1.32 0 2 0 C2 0.66 2 1.32 2 2 C1.34 2 0.68 2 0 2 C0 1.34 0 0.68 0 0 Z " fill="#000000" transform="translate(41,38)"/>
<path d="M0 0 C0.66 0 1.32 0 2 0 C2 0.66 2 1.32 2 2 C1.34 2 0.68 2 0 2 C0 1.34 0 0.68 0 0 Z " fill="#000000" transform="translate(32,38)"/>
<path d="M0 0 C0.66 0 1.32 0 2 0 C2 0.66 2 1.32 2 2 C1.34 2 0.68 2 0 2 C0 1.34 0 0.68 0 0 Z " fill="#000000" transform="translate(4,38)"/>
</svg>
