<?xml version="1.0" encoding="UTF-8"?>
<!DOCTYPE svg PUBLIC "-//W3C//DTD SVG 1.1//EN" "http://www.w3.org/Graphics/SVG/1.1/DTD/svg11.dtd">
<svg xmlns="http://www.w3.org/2000/svg" version="1.1" width="1920px" height="1080px" style="shape-rendering:geometricPrecision; text-rendering:geometricPrecision; image-rendering:optimizeQuality; fill-rule:evenodd; clip-rule:evenodd" xmlns:xlink="http://www.w3.org/1999/xlink">
<g><path style="opacity:1" fill="#a984fe" d="M -0.5,-0.5 C 22.8333,-0.5 46.1667,-0.5 69.5,-0.5C 81.1176,5.64706 92.1176,12.8137 102.5,21C 131.802,47.9673 160.802,75.3007 189.5,103C 127.566,122.269 64.2323,134.769 -0.5,140.5C -0.5,93.5 -0.5,46.5 -0.5,-0.5 Z"/></g>
<g><path style="opacity:0.997" fill="#fee6bd" d="M 69.5,-0.5 C 144.5,-0.5 219.5,-0.5 294.5,-0.5C 301.861,42.3593 326.195,70.526 367.5,84C 386.647,89.1207 405.98,93.2874 425.5,96.5C 409.109,148.058 375.109,182.225 323.5,199C 296.813,207.755 269.813,215.422 242.5,222C 175.911,237.838 123.745,274.004 86,330.5C 75.2615,352.54 62.9281,373.54 49,393.5C 36.3549,409.405 19.8549,417.072 -0.5,416.5C -0.5,324.5 -0.5,232.5 -0.5,140.5C 64.2323,134.769 127.566,122.269 189.5,103C 160.802,75.3007 131.802,47.9673 102.5,21C 92.1176,12.8137 81.1176,5.64706 69.5,-0.5 Z"/></g>
<g><path style="opacity:0.868" fill="#dea852" d="M 294.5,-0.5 C 296.5,-0.5 298.5,-0.5 300.5,-0.5C 308.266,41.4299 332.6,68.2633 373.5,80C 391.327,84.4575 409.327,87.9575 427.5,90.5C 440.317,92.2877 452.651,95.7877 464.5,101C 480.656,111.168 486.489,125.668 482,144.5C 477.019,168.772 466.019,189.772 449,207.5C 423.109,232.355 393.276,251.188 359.5,264C 350.577,267.53 341.577,270.863 332.5,274C 299.909,283.53 267.576,293.864 235.5,305C 188.248,321.294 149.081,348.794 118,387.5C 95,422.167 72,456.833 49,491.5C 35.3128,505.928 18.8128,515.595 -0.5,520.5C -0.5,518.167 -0.5,515.833 -0.5,513.5C 16.1713,508.915 30.6713,500.582 43,488.5C 59.847,465.31 75.5137,441.31 90,416.5C 120.018,365.155 162.518,327.988 217.5,305C 235.863,297.545 254.53,290.879 273.5,285C 309.907,275.643 345.24,263.309 379.5,248C 410.01,234.476 435.51,214.643 456,188.5C 469.708,169.709 476.375,148.709 476,125.5C 474.201,117.367 469.701,111.2 462.5,107C 450.568,102.1 438.234,98.6001 425.5,96.5C 405.98,93.2874 386.647,89.1207 367.5,84C 326.195,70.526 301.861,42.3593 294.5,-0.5 Z"/></g>
<g><path style="opacity:0.996" fill="#fee6bc" d="M 300.5,-0.5 C 346.5,-0.5 392.5,-0.5 438.5,-0.5C 439.675,30.4353 436.008,60.7686 427.5,90.5C 409.327,87.9575 391.327,84.4575 373.5,80C 332.6,68.2633 308.266,41.4299 300.5,-0.5 Z"/></g>
<g><path style="opacity:0.998" fill="#a884fe" d="M 1461.5,-0.5 C 1614.17,-0.5 1766.83,-0.5 1919.5,-0.5C 1919.5,127.833 1919.5,256.167 1919.5,384.5C 1875.32,400.411 1834.32,394.744 1796.5,367.5C 1796.5,366.833 1796.17,366.5 1795.5,366.5C 1794.44,362.82 1793.27,359.154 1792,355.5C 1791.23,347.81 1792.56,340.476 1796,333.5C 1802.11,322.392 1807.77,311.059 1813,299.5C 1819.57,283.41 1818.9,267.743 1811,252.5C 1805.63,246.302 1799.96,245.968 1794,251.5C 1790.9,256.036 1789.23,261.036 1789,266.5C 1789.21,277.16 1789.21,287.827 1789,298.5C 1787.86,309.613 1783.36,319.113 1775.5,327C 1772.27,329.616 1768.6,331.116 1764.5,331.5C 1761.24,327.304 1758.24,322.97 1755.5,318.5C 1755.74,313.933 1756.91,309.599 1759,305.5C 1765.08,293.674 1771.41,282.007 1778,270.5C 1784.9,255.625 1785.24,240.625 1779,225.5C 1775.87,219.673 1771.03,217.507 1764.5,219C 1758.5,223.18 1755.83,229.013 1756.5,236.5C 1758.87,248.474 1759.03,260.474 1757,272.5C 1755,280.675 1750.83,287.508 1744.5,293C 1743.55,293.483 1742.55,293.649 1741.5,293.5C 1737.64,287.117 1734.31,280.45 1731.5,273.5C 1735.95,264.595 1740.45,255.595 1745,246.5C 1750.01,234.628 1751.68,222.295 1750,209.5C 1749.02,204.699 1746.85,200.532 1743.5,197C 1737.54,194.132 1733.04,195.632 1730,201.5C 1729.02,204.241 1728.52,207.075 1728.5,210C 1730.53,225.373 1729.7,240.54 1726,255.5C 1725.62,256.942 1724.79,257.942 1723.5,258.5C 1721.1,252.708 1718.44,247.041 1715.5,241.5C 1723.58,221.783 1723.41,202.116 1715,182.5C 1711.43,174.533 1705.76,172.2 1698,175.5C 1697.33,180.833 1697.33,186.167 1698,191.5C 1702.05,201.14 1704.55,211.14 1705.5,221.5C 1701.75,214.998 1697.75,208.665 1693.5,202.5C 1691.21,188.749 1684.88,177.249 1674.5,168C 1671.99,166.748 1669.32,166.248 1666.5,166.5C 1646.48,144.988 1621.81,132.155 1592.5,128C 1571.39,126.659 1550.39,124.325 1529.5,121C 1496.4,112.562 1475.56,91.7287 1467,58.5C 1462.07,39.1394 1460.24,19.4727 1461.5,-0.5 Z"/></g>
<g><path style="opacity:0.973" fill="#74da60" d="M 1666.5,166.5 C 1669.32,166.248 1671.99,166.748 1674.5,168C 1684.88,177.249 1691.21,188.749 1693.5,202.5C 1694,205.467 1694.33,208.467 1694.5,211.5C 1692.74,221.132 1691.57,230.798 1691,240.5C 1695.19,242.628 1698.85,241.628 1702,237.5C 1705.06,232.645 1706.23,227.311 1705.5,221.5C 1704.55,211.14 1702.05,201.14 1698,191.5C 1697.33,186.167 1697.33,180.833 1698,175.5C 1705.76,172.2 1711.43,174.533 1715,182.5C 1723.41,202.116 1723.58,221.783 1715.5,241.5C 1713.03,245.771 1710.53,250.104 1708,254.5C 1706,272.102 1711,274.102 1723,260.5C 1723.46,259.906 1723.63,259.239 1723.5,258.5C 1724.79,257.942 1725.62,256.942 1726,255.5C 1729.7,240.54 1730.53,225.373 1728.5,210C 1728.52,207.075 1729.02,204.241 1730,201.5C 1733.04,195.632 1737.54,194.132 1743.5,197C 1746.85,200.532 1749.02,204.699 1750,209.5C 1751.68,222.295 1750.01,234.628 1745,246.5C 1740.45,255.595 1735.95,264.595 1731.5,273.5C 1727.99,278.572 1726.82,284.239 1728,290.5C 1731.83,294.459 1736.33,295.459 1741.5,293.5C 1742.55,293.649 1743.55,293.483 1744.5,293C 1750.83,287.508 1755,280.675 1757,272.5C 1759.03,260.474 1758.87,248.474 1756.5,236.5C 1755.83,229.013 1758.5,223.18 1764.5,219C 1771.03,217.507 1775.87,219.673 1779,225.5C 1785.24,240.625 1784.9,255.625 1778,270.5C 1771.41,282.007 1765.08,293.674 1759,305.5C 1756.91,309.599 1755.74,313.933 1755.5,318.5C 1755.26,322.41 1756.1,326.077 1758,329.5C 1759.9,331.016 1762.06,331.683 1764.5,331.5C 1768.6,331.116 1772.27,329.616 1775.5,327C 1783.36,319.113 1787.86,309.613 1789,298.5C 1789.21,287.827 1789.21,277.16 1789,266.5C 1789.23,261.036 1790.9,256.036 1794,251.5C 1799.96,245.968 1805.63,246.302 1811,252.5C 1818.9,267.743 1819.57,283.41 1813,299.5C 1807.77,311.059 1802.11,322.392 1796,333.5C 1792.56,340.476 1791.23,347.81 1792,355.5C 1793.27,359.154 1794.44,362.82 1795.5,366.5C 1796.17,366.5 1796.5,366.833 1796.5,367.5C 1795.39,383.776 1786.73,391.276 1770.5,390C 1763.06,387.113 1756.06,383.446 1749.5,379C 1745.84,377.292 1742,376.126 1738,375.5C 1725.29,378.643 1712.45,381.143 1699.5,383C 1686.79,384.491 1675.46,381.325 1665.5,373.5C 1657.71,361.853 1660.71,357.019 1674.5,359C 1682.58,361.803 1690.58,364.803 1698.5,368C 1711.72,371.029 1723.72,368.363 1734.5,360C 1737.79,357.588 1738.96,354.421 1738,350.5C 1731.12,345.764 1723.45,343.43 1715,343.5C 1703.44,344.945 1691.94,346.778 1680.5,349C 1667.4,351.236 1655.07,349.236 1643.5,343C 1638.86,339.539 1635.86,335.039 1634.5,329.5C 1635.73,325.61 1638.39,323.61 1642.5,323.5C 1653.25,326.02 1663.92,328.854 1674.5,332C 1684.56,334.601 1694.23,333.601 1703.5,329C 1708.43,321.519 1706.43,316.852 1697.5,315C 1680.47,314.837 1663.47,314.17 1646.5,313C 1633.94,312.377 1623.11,307.877 1614,299.5C 1609.05,285.109 1613.55,280.276 1627.5,285C 1643.34,296.701 1661,301.035 1680.5,298C 1685.68,293.921 1685.68,289.588 1680.5,285C 1678.5,284.333 1676.5,283.667 1674.5,283C 1656.64,281.691 1639.31,278.025 1622.5,272C 1615.56,268.947 1609.39,264.781 1604,259.5C 1600.89,255.278 1599.89,250.611 1601,245.5C 1603.95,241.723 1607.79,240.557 1612.5,242C 1620.38,246.877 1627.38,252.877 1633.5,260C 1637,262.583 1640.66,264.916 1644.5,267C 1651.79,269.78 1658.29,268.614 1664,263.5C 1665.74,260.099 1664.91,257.266 1661.5,255C 1651.73,251.055 1641.73,247.722 1631.5,245C 1621.24,241.29 1612.41,235.457 1605,227.5C 1600.42,222.107 1599.59,216.273 1602.5,210C 1605.03,208.578 1607.7,208.245 1610.5,209C 1613,210.08 1615.33,211.414 1617.5,213C 1625.83,220.667 1634.17,228.333 1642.5,236C 1645.31,237.658 1648.31,238.825 1651.5,239.5C 1653.21,239.297 1654.54,238.464 1655.5,237C 1647.9,220.972 1638.4,206.138 1627,192.5C 1621.49,185.212 1620.15,177.212 1623,168.5C 1631.14,160.507 1639.14,160.84 1647,169.5C 1648.92,172.339 1650.59,175.339 1652,178.5C 1655.44,192.286 1660.11,205.619 1666,218.5C 1669.59,225.324 1673.92,225.991 1679,220.5C 1679.67,217.833 1679.67,215.167 1679,212.5C 1674.1,202.599 1668.77,192.932 1663,183.5C 1662.33,179.167 1662.33,174.833 1663,170.5C 1663.66,168.676 1664.83,167.343 1666.5,166.5 Z M 1693.5,202.5 C 1697.75,208.665 1701.75,214.998 1705.5,221.5C 1706.23,227.311 1705.06,232.645 1702,237.5C 1698.85,241.628 1695.19,242.628 1691,240.5C 1691.57,230.798 1692.74,221.132 1694.5,211.5C 1694.33,208.467 1694,205.467 1693.5,202.5 Z M 1715.5,241.5 C 1718.44,247.041 1721.1,252.708 1723.5,258.5C 1723.63,259.239 1723.46,259.906 1723,260.5C 1711,274.102 1706,272.102 1708,254.5C 1710.53,250.104 1713.03,245.771 1715.5,241.5 Z M 1731.5,273.5 C 1734.31,280.45 1737.64,287.117 1741.5,293.5C 1736.33,295.459 1731.83,294.459 1728,290.5C 1726.82,284.239 1727.99,278.572 1731.5,273.5 Z M 1755.5,318.5 C 1758.24,322.97 1761.24,327.304 1764.5,331.5C 1762.06,331.683 1759.9,331.016 1758,329.5C 1756.1,326.077 1755.26,322.41 1755.5,318.5 Z"/></g>
<g><path style="opacity:0.951" fill="#334e5e" d="M 1919.5,700.5 C 1919.5,705.833 1919.5,711.167 1919.5,716.5C 1897.83,707.11 1875.16,703.11 1851.5,704.5C 1854.55,719.333 1853.88,734 1849.5,748.5C 1843.69,761.486 1835.36,772.652 1824.5,782C 1809.21,793.094 1795.04,791.928 1782,778.5C 1775.11,764.692 1774.78,750.692 1781,736.5C 1784.01,730.47 1787.51,724.804 1791.5,719.5C 1802.29,706.93 1815.63,698.097 1831.5,693C 1807.44,656.748 1774.11,644.081 1731.5,655C 1709,661.187 1690.5,673.353 1676,691.5C 1671.11,699.837 1668.44,708.837 1668,718.5C 1663.97,723.364 1659.63,723.698 1655,719.5C 1652.86,707.363 1655.2,696.03 1662,685.5C 1676.25,665.436 1695.08,651.269 1718.5,643C 1744.85,634.399 1771.19,634.399 1797.5,643C 1819.72,652.551 1836.05,668.217 1846.5,690C 1871.7,687.728 1896.03,691.228 1919.5,700.5 Z M 1836.5,739.5 C 1827.27,733.719 1817.61,728.719 1807.5,724.5C 1815.72,716.55 1825.39,710.883 1836.5,707.5C 1839.05,718.15 1839.05,728.817 1836.5,739.5 Z"/></g>
<g><path style="opacity:0.995" fill="#fee6bc" d="M 321.5,961.5 C 315.435,962.516 309.435,963.85 303.5,965.5C 301.265,965.205 299.265,965.539 297.5,966.5C 292.507,966.916 287.507,967.249 282.5,967.5C 281.167,967.5 279.833,967.5 278.5,967.5C 278.167,967.5 277.833,967.5 277.5,967.5C 275.735,966.539 273.735,966.205 271.5,966.5C 265.393,966.056 259.393,965.056 253.5,963.5C 252.167,963.167 250.833,962.833 249.5,962.5C 243.926,963.544 239.259,962.044 235.5,958C 229.572,956.035 223.906,953.535 218.5,950.5C 217.07,949.463 215.403,948.796 213.5,948.5C 202.86,941.339 193.194,933.006 184.5,923.5C 182.303,919.762 179.636,916.429 176.5,913.5C 172.749,906.329 168.749,899.329 164.5,892.5C 164.34,890.847 163.674,889.514 162.5,888.5C 147.223,853.825 146.556,818.825 160.5,783.5C 167.968,763.741 179.968,747.241 196.5,734C 233.103,707.08 273.436,699.413 317.5,711C 358.903,728.407 386.403,758.573 400,801.5C 418.519,859.271 403.686,906.437 355.5,943C 344.841,950.495 333.507,956.661 321.5,961.5 Z"/></g>
<g><path style="opacity:0.997" fill="#f7d6b9" d="M 1791.5,719.5 C 1787.51,724.804 1784.01,730.47 1781,736.5C 1774.78,750.692 1775.11,764.692 1782,778.5C 1795.04,791.928 1809.21,793.094 1824.5,782C 1835.36,772.652 1843.69,761.486 1849.5,748.5C 1879.22,771.625 1902.55,799.958 1919.5,833.5C 1919.5,915.5 1919.5,997.5 1919.5,1079.5C 1764.5,1079.5 1609.5,1079.5 1454.5,1079.5C 1460.06,1042.6 1465.22,1005.6 1470,968.5C 1476.19,930.713 1495.36,901.88 1527.5,882C 1549.79,870.513 1572.79,860.68 1596.5,852.5C 1606.39,860.065 1612.05,857.399 1613.5,844.5C 1635.52,834.651 1652.69,819.317 1665,798.5C 1673.09,781.979 1681.43,765.646 1690,749.5C 1703.31,728.422 1722.48,716.922 1747.5,715C 1762.45,713.976 1777.11,715.476 1791.5,719.5 Z"/></g>
<g><path style="opacity:0.988" fill="#f6d5b9" d="M 1807.5,724.5 C 1817.61,728.719 1827.27,733.719 1836.5,739.5C 1832.73,751.538 1826.06,761.705 1816.5,770C 1811.03,773.824 1805.03,775.158 1798.5,774C 1794.42,771.688 1791.92,768.188 1791,763.5C 1789.42,747.346 1794.92,734.346 1807.5,724.5 Z"/></g>
<g><path style="opacity:0.997" fill="#fed9f5" d="M 160.5,783.5 C 146.556,818.825 147.223,853.825 162.5,888.5C 161.921,891.331 160.588,893.664 158.5,895.5C 147.315,889.321 136.148,882.987 125,876.5C 124.617,877.056 124.117,877.389 123.5,877.5C 123.167,876.5 122.5,875.833 121.5,875.5C 113.843,870.985 106.843,865.485 100.5,859C 91.6941,862.701 86.8608,869.534 86,879.5C 85.0695,882.362 83.4029,884.695 81,886.5C 80.8295,888.715 80.1628,890.715 79,892.5C 78.6124,895.849 78.7791,899.183 79.5,902.5C 75.8056,904.677 71.9722,906.677 68,908.5C 67.6667,911.5 67.3333,914.5 67,917.5C 64.5549,921.497 62.8882,925.831 62,930.5C 61.1667,931.333 60.3333,932.167 59.5,933C 56.7111,933.241 54.0444,933.908 51.5,935C 47.5,937.667 43.5,940.333 39.5,943C 36.8324,947.157 34.8324,951.657 33.5,956.5C 44.3288,963.083 55.3288,969.416 66.5,975.5C 67.609,975.557 68.609,975.89 69.5,976.5C 76.1882,980.6 83.0215,984.6 90,988.5C 91.3561,987.62 92.8561,987.286 94.5,987.5C 90.6385,988.459 90.6385,989.459 94.5,990.5C 107.682,998.593 121.348,1005.93 135.5,1012.5C 136.209,1013.4 137.209,1013.74 138.5,1013.5C 139.642,1015.43 141.308,1016.93 143.5,1018C 149.22,1020.86 154.886,1023.69 160.5,1026.5C 161.514,1027.67 162.847,1028.34 164.5,1028.5C 173.779,1034.48 183.446,1039.98 193.5,1045C 194.381,1045.71 195.047,1046.54 195.5,1047.5C 181.461,1058.18 167.461,1068.84 153.5,1079.5C 102.167,1079.5 50.8333,1079.5 -0.5,1079.5C -0.5,973.833 -0.5,868.167 -0.5,762.5C 55.1789,754.073 108.846,761.073 160.5,783.5 Z"/></g>
<g><path style="opacity:0.846" fill="#fc967d" d="M 1567.5,765.5 C 1574.99,765.494 1578.66,769.327 1578.5,777C 1577.98,783.704 1575.31,789.37 1570.5,794C 1561.22,796.903 1556.55,793.403 1556.5,783.5C 1556.94,775.419 1560.61,769.419 1567.5,765.5 Z M 1568.5,772.5 C 1569.12,772.611 1569.62,772.944 1570,773.5C 1571.22,779.664 1569.72,784.997 1565.5,789.5C 1564.52,789.023 1563.69,788.357 1563,787.5C 1561.51,781.163 1563.35,776.163 1568.5,772.5 Z"/></g>
<g><path style="opacity:1" fill="#fd977f" d="M 264.5,766.5 C 276.362,765.86 280.529,771.193 277,782.5C 273.604,786.203 269.437,787.369 264.5,786C 258.975,783.081 257.142,778.581 259,772.5C 260.36,769.977 262.193,767.977 264.5,766.5 Z"/></g>
<g><path style="opacity:0.877" fill="#fc967d" d="M 1591.5,770.5 C 1595.64,769.704 1598.81,771.037 1601,774.5C 1606.72,784.895 1606.72,795.228 1601,805.5C 1593.78,811.412 1588.78,809.745 1586,800.5C 1585.33,792.833 1585.33,785.167 1586,777.5C 1587.84,775.136 1589.68,772.803 1591.5,770.5 Z M 1593.5,777.5 C 1594.75,777.577 1595.58,778.244 1596,779.5C 1599.37,787.311 1599.04,794.977 1595,802.5C 1592.23,794.338 1591.73,786.004 1593.5,777.5 Z"/></g>
<g><path style="opacity:1" fill="#fd977f" d="M 217.5,772.5 C 222.058,771.38 224.891,773.047 226,777.5C 226.89,801.861 235.39,823.028 251.5,841C 277.439,863.074 305.773,866.408 336.5,851C 342.399,847.769 347.732,843.769 352.5,839C 357.94,835.089 362.44,835.922 366,841.5C 366.841,845.12 366.174,848.454 364,851.5C 339.756,871.803 311.923,879.969 280.5,876C 240.164,864.318 217.997,837.485 214,795.5C 213.333,790.167 213.333,784.833 214,779.5C 214.133,776.596 215.3,774.262 217.5,772.5 Z"/></g>
<g><path style="opacity:0.827" fill="#fc967d" d="M 1641.5,786.5 C 1651.15,784.367 1655.32,788.034 1654,797.5C 1650.76,806.912 1644.26,812.579 1634.5,814.5C 1627.86,812.636 1625.69,808.303 1628,801.5C 1630.97,795.033 1635.47,790.033 1641.5,786.5 Z M 1645.5,790.5 C 1647.38,790.712 1648.72,791.712 1649.5,793.5C 1647.26,799.84 1643.26,804.673 1637.5,808C 1635.87,808.494 1634.2,808.66 1632.5,808.5C 1633.87,800.163 1638.2,794.163 1645.5,790.5 Z"/></g>
<g><path style="opacity:0.836" fill="#fc967d" d="M 1525.5,789.5 C 1531.47,788.297 1535.3,790.631 1537,796.5C 1539.12,802.611 1538.95,808.611 1536.5,814.5C 1529.04,819.074 1523.21,817.408 1519,809.5C 1517.31,801.415 1519.47,794.748 1525.5,789.5 Z M 1527.5,794.5 C 1529.02,794.511 1530.18,795.177 1531,796.5C 1533.44,801.44 1533.78,806.44 1532,811.5C 1527.86,811.931 1525.03,809.931 1523.5,805.5C 1524.69,801.742 1526.02,798.075 1527.5,794.5 Z"/></g>
<g><path style="opacity:1" fill="#fd977f" d="M 312.5,792.5 C 322.356,791.532 327.19,795.865 327,805.5C 323.903,812.132 318.736,814.299 311.5,812C 304.606,805.024 304.939,798.524 312.5,792.5 Z"/></g>
<g><path style="opacity:1" fill="#fc9981" d="M 1674.5,804.5 C 1681.24,804.25 1684.74,807.583 1685,814.5C 1686.06,820.724 1685.39,826.724 1683,832.5C 1678.97,837.364 1674.63,837.698 1670,833.5C 1664.28,822.657 1665.78,812.99 1674.5,804.5 Z"/></g>
<g><path style="opacity:1" fill="#f8d5b8" d="M 1676.5,810.5 C 1677.79,811.058 1678.62,812.058 1679,813.5C 1679.67,818.167 1679.67,822.833 1679,827.5C 1677.15,832.772 1675.15,832.772 1673,827.5C 1671.49,821.13 1672.65,815.464 1676.5,810.5 Z"/></g>
<g><path style="opacity:0.827" fill="#fc967d" d="M 1564.5,816.5 C 1567.65,815.959 1570.15,816.959 1572,819.5C 1577.78,832.181 1575.94,843.681 1566.5,854C 1560.77,856.904 1556.27,855.738 1553,850.5C 1552.36,837.589 1556.19,826.255 1564.5,816.5 Z M 1565.5,822.5 C 1566.75,822.577 1567.58,823.244 1568,824.5C 1570.38,831.79 1569.71,838.79 1566,845.5C 1562.77,852.004 1559.94,852.004 1557.5,845.5C 1558.98,837.399 1561.64,829.733 1565.5,822.5 Z"/></g>
<g><path style="opacity:0.891" fill="#fd977f" d="M 1613.5,844.5 C 1612.05,857.399 1606.39,860.065 1596.5,852.5C 1592.03,844.735 1591.53,836.735 1595,828.5C 1605.42,818.798 1611.42,821.132 1613,835.5C 1613.5,838.482 1613.66,841.482 1613.5,844.5 Z M 1603.5,827.5 C 1604.93,827.881 1605.76,828.881 1606,830.5C 1607.44,835.762 1607.77,841.096 1607,846.5C 1605.22,849.003 1603.55,849.003 1602,846.5C 1599.79,839.888 1600.29,833.554 1603.5,827.5 Z"/></g>
<g><path style="opacity:1" fill="#fc9a81" d="M 1638.5,832.5 C 1645.87,833.03 1650.37,837.03 1652,844.5C 1652.98,849.734 1652.31,854.734 1650,859.5C 1646.21,862.803 1642.04,863.303 1637.5,861C 1630.51,851.156 1630.84,841.656 1638.5,832.5 Z"/></g>
<g><path style="opacity:1" fill="#f8d3b6" d="M 1639.5,836.5 C 1642.52,837.353 1644.35,839.353 1645,842.5C 1645.67,847.167 1645.67,851.833 1645,856.5C 1642.43,859.259 1640.26,858.926 1638.5,855.5C 1639.06,854.061 1639.4,852.561 1639.5,851C 1638.83,848 1638.17,845 1637.5,842C 1637.39,839.822 1638.06,837.988 1639.5,836.5 Z"/></g>
<g><path style="opacity:0.848" fill="#fc967d" d="M 1521.5,841.5 C 1530.07,844.271 1534.57,850.271 1535,859.5C 1536.1,872.527 1530.6,876.694 1518.5,872C 1516.95,870.786 1515.78,869.286 1515,867.5C 1512.81,857.658 1514.98,848.991 1521.5,841.5 Z M 1521.5,848.5 C 1522.79,849.058 1523.62,850.058 1524,851.5C 1525.47,855.411 1526.64,859.411 1527.5,863.5C 1525.71,869.456 1523.21,869.456 1520,863.5C 1519.29,858.372 1519.79,853.372 1521.5,848.5 Z"/></g>
<g><path style="opacity:1" fill="#aa85fe" d="M 121.5,875.5 C 119.811,879.355 116.978,882.022 113,883.5C 110.484,880.651 107.651,878.151 104.5,876C 97.6759,875.506 95.1759,878.672 97,885.5C 100.735,889.096 105.235,890.429 110.5,889.5C 110.967,896.241 108.134,900.908 102,903.5C 99.2845,900.589 96.4512,897.756 93.5,895C 87.1318,893.742 84.2985,896.242 85,902.5C 88.3861,906.92 92.8861,908.586 98.5,907.5C 99.1042,915.96 95.7709,922.294 88.5,926.5C 85.6052,921.777 81.4386,918.777 76,917.5C 70.8618,918.976 69.1951,922.31 71,927.5C 71.8333,928.333 72.6667,929.167 73.5,930C 77.6996,931.367 82.0329,931.867 86.5,931.5C 86.9698,937.926 84.9698,943.426 80.5,948C 79.5,948.667 78.5,948.667 77.5,948C 73.5479,942.354 68.2146,940.021 61.5,941C 58.9306,945.667 59.9306,949.667 64.5,953C 68.3628,954.354 72.3628,954.854 76.5,954.5C 76.6989,957.941 76.1989,961.274 75,964.5C 72.7165,968.614 69.8831,972.28 66.5,975.5C 55.3288,969.416 44.3288,963.083 33.5,956.5C 34.8324,951.657 36.8324,947.157 39.5,943C 43.5,940.333 47.5,937.667 51.5,935C 54.0444,933.908 56.7111,933.241 59.5,933C 60.3333,932.167 61.1667,931.333 62,930.5C 62.8882,925.831 64.5549,921.497 67,917.5C 67.3333,914.5 67.6667,911.5 68,908.5C 71.9722,906.677 75.8056,904.677 79.5,902.5C 78.7791,899.183 78.6124,895.849 79,892.5C 80.1628,890.715 80.8295,888.715 81,886.5C 83.4029,884.695 85.0695,882.362 86,879.5C 86.8608,869.534 91.6941,862.701 100.5,859C 106.843,865.485 113.843,870.985 121.5,875.5 Z"/></g>
<g><path style="opacity:1" fill="#fc9880" d="M 1676.5,862.5 C 1690.29,859.776 1694.79,864.776 1690,877.5C 1687.83,880.333 1685.33,882.833 1682.5,885C 1671.47,888.97 1666.64,885.136 1668,873.5C 1670.35,869.338 1673.18,865.671 1676.5,862.5 Z"/></g>
<g><path style="opacity:1" fill="#f8d4b7" d="M 1678.5,867.5 C 1681.17,867.5 1683.83,867.5 1686.5,867.5C 1686.35,874.822 1682.85,879.822 1676,882.5C 1674.74,882.241 1673.74,881.574 1673,880.5C 1671.83,874.853 1673.66,870.519 1678.5,867.5 Z"/></g>
<g><path style="opacity:1" fill="#f4eeef" d="M 121.5,875.5 C 122.5,875.833 123.167,876.5 123.5,877.5C 121.522,881.478 118.522,884.478 114.5,886.5C 113.703,890.842 112.87,895.176 112,899.5C 109.268,902.896 105.935,905.563 102,907.5C 102.083,917.006 98.2492,924.339 90.5,929.5C 91.2928,939.241 87.7928,946.908 80,952.5C 81.0302,962.604 77.5302,970.604 69.5,976.5C 68.609,975.89 67.609,975.557 66.5,975.5C 69.8831,972.28 72.7165,968.614 75,964.5C 76.1989,961.274 76.6989,957.941 76.5,954.5C 72.3628,954.854 68.3628,954.354 64.5,953C 59.9306,949.667 58.9306,945.667 61.5,941C 68.2146,940.021 73.5479,942.354 77.5,948C 78.5,948.667 79.5,948.667 80.5,948C 84.9698,943.426 86.9698,937.926 86.5,931.5C 82.0329,931.867 77.6996,931.367 73.5,930C 72.6667,929.167 71.8333,928.333 71,927.5C 69.1951,922.31 70.8618,918.976 76,917.5C 81.4386,918.777 85.6052,921.777 88.5,926.5C 95.7709,922.294 99.1042,915.96 98.5,907.5C 92.8861,908.586 88.3861,906.92 85,902.5C 84.2985,896.242 87.1318,893.742 93.5,895C 96.4512,897.756 99.2845,900.589 102,903.5C 108.134,900.908 110.967,896.241 110.5,889.5C 105.235,890.429 100.735,889.096 97,885.5C 95.1759,878.672 97.6759,875.506 104.5,876C 107.651,878.151 110.484,880.651 113,883.5C 116.978,882.022 119.811,879.355 121.5,875.5 Z"/></g>
<g><path style="opacity:1" fill="#fc9880" d="M 1599.5,875.5 C 1610.33,876.174 1614.5,881.84 1612,892.5C 1610.32,898.041 1607.48,902.874 1603.5,907C 1597.7,910.951 1592.86,910.117 1589,904.5C 1586.5,892.498 1590,882.832 1599.5,875.5 Z"/></g>
<g><path style="opacity:1" fill="#aa85fe" d="M 158.5,895.5 C 155.052,898.558 151.052,900.558 146.5,901.5C 144.947,896.424 141.947,892.257 137.5,889C 135.888,888.28 134.388,888.446 133,889.5C 131.396,898.724 135.23,903.724 144.5,904.5C 145.726,911.208 143.726,916.708 138.5,921C 136.246,922.15 133.913,922.484 131.5,922C 129.65,918.638 127.317,915.638 124.5,913C 118.609,912.638 117.109,915.138 120,920.5C 122.445,923.64 125.612,925.64 129.5,926.5C 132.996,933.693 131.662,939.86 125.5,945C 124.552,945.483 123.552,945.649 122.5,945.5C 122.665,942.482 122.498,939.482 122,936.5C 119.947,932.708 116.781,931.542 112.5,933C 110.163,935.593 109.996,938.426 112,941.5C 113.29,943.792 114.957,945.792 117,947.5C 117.001,953.84 115.001,959.507 111,964.5C 109.569,961.073 107.402,958.24 104.5,956C 96.5162,955.45 94.0162,958.95 97,966.5C 99.6858,969.734 103.186,971.4 107.5,971.5C 106.001,979.18 101.667,984.513 94.5,987.5C 92.8561,987.286 91.3561,987.62 90,988.5C 83.0215,984.6 76.1882,980.6 69.5,976.5C 77.5302,970.604 81.0302,962.604 80,952.5C 87.7928,946.908 91.2928,939.241 90.5,929.5C 98.2492,924.339 102.083,917.006 102,907.5C 105.935,905.563 109.268,902.896 112,899.5C 112.87,895.176 113.703,890.842 114.5,886.5C 118.522,884.478 121.522,881.478 123.5,877.5C 124.117,877.389 124.617,877.056 125,876.5C 136.148,882.987 147.315,889.321 158.5,895.5 Z"/></g>
<g><path style="opacity:1" fill="#af8cfd" d="M 100.5,878.5 C 104.983,878.951 107.483,881.284 108,885.5C 101.416,887.415 98.9164,885.082 100.5,878.5 Z"/></g>
<g><path style="opacity:1" fill="#fc9880" d="M 1546.5,880.5 C 1555.24,880.716 1561.07,885.05 1564,893.5C 1564.67,898.167 1564.67,902.833 1564,907.5C 1558.1,915.47 1552.1,915.47 1546,907.5C 1542.06,901.353 1540.39,894.687 1541,887.5C 1541.97,884.379 1543.8,882.046 1546.5,880.5 Z"/></g>
<g><path style="opacity:1" fill="#f8d3b7" d="M 1600.5,880.5 C 1603.65,880.976 1605.98,882.643 1607.5,885.5C 1606.14,893.23 1602.47,899.563 1596.5,904.5C 1595.52,904.023 1594.69,903.357 1594,902.5C 1593.07,894.206 1595.24,886.873 1600.5,880.5 Z"/></g>
<g><path style="opacity:1" fill="#f8d3b7" d="M 1547.5,885.5 C 1550.05,885.561 1551.55,886.894 1552,889.5C 1554.06,895.02 1554.72,900.687 1554,906.5C 1547.18,900.876 1545.01,893.876 1547.5,885.5 Z"/></g>
<g><path style="opacity:1" fill="#f4eeef" d="M 158.5,895.5 C 160.588,893.664 161.921,891.331 162.5,888.5C 163.674,889.514 164.34,890.847 164.5,892.5C 160.714,898.1 155.548,902.1 149,904.5C 148.743,910.272 147.076,915.605 144,920.5C 141.195,923.653 137.695,925.319 133.5,925.5C 136.036,933.742 134.37,940.908 128.5,947C 126.091,948.707 123.425,949.54 120.5,949.5C 119.964,957.239 116.797,963.573 111,968.5C 110.237,979.424 104.737,986.758 94.5,990.5C 90.6385,989.459 90.6385,988.459 94.5,987.5C 101.667,984.513 106.001,979.18 107.5,971.5C 103.186,971.4 99.6858,969.734 97,966.5C 94.0162,958.95 96.5162,955.45 104.5,956C 107.402,958.24 109.569,961.073 111,964.5C 115.001,959.507 117.001,953.84 117,947.5C 114.957,945.792 113.29,943.792 112,941.5C 109.996,938.426 110.163,935.593 112.5,933C 116.781,931.542 119.947,932.708 122,936.5C 122.498,939.482 122.665,942.482 122.5,945.5C 123.552,945.649 124.552,945.483 125.5,945C 131.662,939.86 132.996,933.693 129.5,926.5C 125.612,925.64 122.445,923.64 120,920.5C 117.109,915.138 118.609,912.638 124.5,913C 127.317,915.638 129.65,918.638 131.5,922C 133.913,922.484 136.246,922.15 138.5,921C 143.726,916.708 145.726,911.208 144.5,904.5C 135.23,903.724 131.396,898.724 133,889.5C 134.388,888.446 135.888,888.28 137.5,889C 141.947,892.257 144.947,896.424 146.5,901.5C 151.052,900.558 155.052,898.558 158.5,895.5 Z"/></g>
<g><path style="opacity:1" fill="#fc9880" d="M 1646.5,888.5 C 1649.97,887.875 1652.8,888.875 1655,891.5C 1656.93,901.734 1653.76,909.901 1645.5,916C 1641.1,917.378 1637.6,916.212 1635,912.5C 1632.84,901.528 1636.67,893.528 1646.5,888.5 Z"/></g>
<g><path style="opacity:1" fill="#b18ffd" d="M 135.5,892.5 C 139.166,894.282 141.832,897.115 143.5,901C 137.984,900.981 135.317,898.148 135.5,892.5 Z"/></g>
<g><path style="opacity:1" fill="#aa85fe" d="M 164.5,892.5 C 168.749,899.329 172.749,906.329 176.5,913.5C 170.75,910.935 167.083,912.602 165.5,918.5C 165.848,920.697 166.848,922.53 168.5,924C 172.026,925.337 175.692,925.837 179.5,925.5C 180.875,933.771 177.542,938.771 169.5,940.5C 167.299,931.641 162.466,929.641 155,934.5C 153.959,937.636 154.793,940.136 157.5,942C 160.536,944.006 163.869,944.84 167.5,944.5C 168.591,952.985 165.424,959.318 158,963.5C 155.833,960 153,957.167 149.5,955C 141.436,953.399 138.603,956.566 141,964.5C 141.833,965.333 142.667,966.167 143.5,967C 147.363,968.354 151.363,968.854 155.5,968.5C 156.733,975.694 154.4,981.36 148.5,985.5C 146.343,983.178 144.01,981.011 141.5,979C 137.675,977.372 133.842,977.205 130,978.5C 130.006,988.996 135.172,992.996 145.5,990.5C 146.526,999.784 143.192,1007.12 135.5,1012.5C 121.348,1005.93 107.682,998.593 94.5,990.5C 104.737,986.758 110.237,979.424 111,968.5C 116.797,963.573 119.964,957.239 120.5,949.5C 123.425,949.54 126.091,948.707 128.5,947C 134.37,940.908 136.036,933.742 133.5,925.5C 137.695,925.319 141.195,923.653 144,920.5C 147.076,915.605 148.743,910.272 149,904.5C 155.548,902.1 160.714,898.1 164.5,892.5 Z"/></g>
<g><path style="opacity:1" fill="#f8d4b7" d="M 1646.5,893.5 C 1647.83,893.5 1649.17,893.5 1650.5,893.5C 1651.12,901.251 1648.29,907.251 1642,911.5C 1641.23,911.355 1640.56,911.022 1640,910.5C 1639.33,908.167 1639.33,905.833 1640,903.5C 1642,900.014 1644.16,896.681 1646.5,893.5 Z"/></g>
<g><path style="opacity:1" fill="#b08dfd" d="M 89.5,897.5 C 93.012,898.005 95.3454,900.005 96.5,903.5C 92.6714,905.09 89.6714,904.09 87.5,900.5C 88.1925,899.482 88.8592,898.482 89.5,897.5 Z"/></g>
<g><path style="opacity:1" fill="#f3edef" d="M 176.5,913.5 C 179.636,916.429 182.303,919.762 184.5,923.5C 184.176,928.726 182.676,933.726 180,938.5C 177.93,940.787 175.43,942.453 172.5,943.5C 171.935,953.971 167.269,961.971 158.5,967.5C 160.199,976.06 157.532,983.06 150.5,988.5C 151.021,999.122 147.021,1007.46 138.5,1013.5C 137.209,1013.74 136.209,1013.4 135.5,1012.5C 143.192,1007.12 146.526,999.784 145.5,990.5C 135.172,992.996 130.006,988.996 130,978.5C 133.842,977.205 137.675,977.372 141.5,979C 144.01,981.011 146.343,983.178 148.5,985.5C 154.4,981.36 156.733,975.694 155.5,968.5C 151.363,968.854 147.363,968.354 143.5,967C 142.667,966.167 141.833,965.333 141,964.5C 138.603,956.566 141.436,953.399 149.5,955C 153,957.167 155.833,960 158,963.5C 165.424,959.318 168.591,952.985 167.5,944.5C 163.869,944.84 160.536,944.006 157.5,942C 154.793,940.136 153.959,937.636 155,934.5C 162.466,929.641 167.299,931.641 169.5,940.5C 177.542,938.771 180.875,933.771 179.5,925.5C 175.692,925.837 172.026,925.337 168.5,924C 166.848,922.53 165.848,920.697 165.5,918.5C 167.083,912.602 170.75,910.935 176.5,913.5 Z"/></g>
<g><path style="opacity:1" fill="#ac88fe" d="M 170.5,915.5 C 174.585,915.582 177.252,917.582 178.5,921.5C 171.738,924.159 169.071,922.159 170.5,915.5 Z"/></g>
<g><path style="opacity:1" fill="#b99afc" d="M 121.5,915.5 C 124.79,916.772 126.624,919.105 127,922.5C 123.805,921.149 121.972,918.815 121.5,915.5 Z"/></g>
<g><path style="opacity:1" fill="#ab87fe" d="M 74.5,921.5 C 79.0353,921.346 82.3687,923.346 84.5,927.5C 81.4937,928.748 78.4937,928.748 75.5,927.5C 73.4537,925.719 73.1204,923.719 74.5,921.5 Z"/></g>
<g><path style="opacity:1" fill="#fc9880" d="M 1667.5,921.5 C 1675.66,920.164 1678.83,923.497 1677,931.5C 1675.37,937.93 1671.87,943.097 1666.5,947C 1660.14,948.401 1656.3,945.901 1655,939.5C 1654.49,930.169 1658.66,924.169 1667.5,921.5 Z"/></g>
<g><path style="opacity:1" fill="#aa85fe" d="M 184.5,923.5 C 193.194,933.006 202.86,941.339 213.5,948.5C 212.775,955.042 209.109,958.708 202.5,959.5C 199.855,956.245 197.188,952.912 194.5,949.5C 192.356,948.047 190.523,948.38 189,950.5C 188.294,952.971 188.627,955.305 190,957.5C 193.011,960.378 196.344,962.712 200,964.5C 201.068,969.768 200.401,974.768 198,979.5C 193.454,984.056 191.621,983.556 192.5,978C 192.076,969.721 188.243,967.221 181,970.5C 180.416,973.257 180.75,975.923 182,978.5C 183.848,981.011 185.681,983.511 187.5,986C 186.678,991.477 184.511,996.31 181,1000.5C 179.5,998.333 178,996.167 176.5,994C 168.246,990.919 164.746,993.752 166,1002.5C 168.944,1006.11 172.777,1007.45 177.5,1006.5C 175.437,1016.23 169.771,1022.9 160.5,1026.5C 154.886,1023.69 149.22,1020.86 143.5,1018C 141.308,1016.93 139.642,1015.43 138.5,1013.5C 147.021,1007.46 151.021,999.122 150.5,988.5C 157.532,983.06 160.199,976.06 158.5,967.5C 167.269,961.971 171.935,953.971 172.5,943.5C 175.43,942.453 177.93,940.787 180,938.5C 182.676,933.726 184.176,928.726 184.5,923.5 Z"/></g>
<g><path style="opacity:1" fill="#fc9880" d="M 1577.5,926.5 C 1585.04,926.529 1589.87,930.195 1592,937.5C 1594.18,942.995 1594.85,948.661 1594,954.5C 1590.75,959.223 1586.25,960.723 1580.5,959C 1571.94,952.652 1568.44,944.152 1570,933.5C 1571.74,930.254 1574.24,927.921 1577.5,926.5 Z"/></g>
<g><path style="opacity:1" fill="#f8d3b6" d="M 1668.5,926.5 C 1669.5,926.5 1670.5,926.5 1671.5,926.5C 1671.2,932.769 1668.53,937.769 1663.5,941.5C 1662.91,941.291 1662.41,940.957 1662,940.5C 1661.33,938.167 1661.33,935.833 1662,933.5C 1663.69,930.642 1665.86,928.309 1668.5,926.5 Z"/></g>
<g><path style="opacity:1" fill="#fc9a82" d="M 1623.5,930.5 C 1631.17,930.35 1634.51,934.183 1633.5,942C 1633.67,950.176 1630.17,956.009 1623,959.5C 1621.1,959.385 1619.44,958.718 1618,957.5C 1613.88,947.251 1615.72,938.251 1623.5,930.5 Z"/></g>
<g><path style="opacity:1" fill="#f8d4b7" d="M 1579.5,931.5 C 1581.35,932.52 1582.69,934.02 1583.5,936C 1585.7,941.288 1586.7,946.788 1586.5,952.5C 1582.08,952.256 1579.24,949.922 1578,945.5C 1575.49,940.353 1575.99,935.687 1579.5,931.5 Z"/></g>
<g><path style="opacity:1" fill="#ae8bfd" d="M 158.5,934.5 C 162.547,934.535 165.214,936.535 166.5,940.5C 163.641,941.599 160.974,941.099 158.5,939C 157.272,937.51 157.272,936.01 158.5,934.5 Z"/></g>
<g><path style="opacity:1" fill="#b08dfd" d="M 114.5,935.5 C 116.39,935.297 117.89,935.963 119,937.5C 119.929,945.497 118.596,946.164 115,939.5C 114.51,938.207 114.343,936.873 114.5,935.5 Z"/></g>
<g><path style="opacity:1" fill="#f8d4b7" d="M 1625.5,935.5 C 1626.75,935.577 1627.58,936.244 1628,937.5C 1628.67,941.5 1628.67,945.5 1628,949.5C 1622.69,959.117 1619.52,958.283 1618.5,947C 1618.6,945.439 1618.94,943.939 1619.5,942.5C 1621.52,940.147 1623.52,937.814 1625.5,935.5 Z"/></g>
<g><path style="opacity:1" fill="#ab87fe" d="M 63.5,944.5 C 66.7935,944.259 69.7935,945.092 72.5,947C 74.0368,948.11 74.7035,949.61 74.5,951.5C 68.2191,952.877 64.5524,950.543 63.5,944.5 Z"/></g>
<g><path style="opacity:1" fill="#f4edef" d="M 213.5,948.5 C 215.403,948.796 217.07,949.463 218.5,950.5C 215.991,953.607 213.325,956.774 210.5,960C 208.541,960.931 206.541,961.764 204.5,962.5C 206.216,970.938 203.883,978.105 197.5,984C 195.341,984.912 193.175,985.745 191,986.5C 189.644,993.549 186.478,999.549 181.5,1004.5C 179.667,1015.32 174.001,1023.32 164.5,1028.5C 162.847,1028.34 161.514,1027.67 160.5,1026.5C 169.771,1022.9 175.437,1016.23 177.5,1006.5C 172.777,1007.45 168.944,1006.11 166,1002.5C 164.746,993.752 168.246,990.919 176.5,994C 178,996.167 179.5,998.333 181,1000.5C 184.511,996.31 186.678,991.477 187.5,986C 185.681,983.511 183.848,981.011 182,978.5C 180.75,975.923 180.416,973.257 181,970.5C 188.243,967.221 192.076,969.721 192.5,978C 191.621,983.556 193.454,984.056 198,979.5C 200.401,974.768 201.068,969.768 200,964.5C 196.344,962.712 193.011,960.378 190,957.5C 188.627,955.305 188.294,952.971 189,950.5C 190.523,948.38 192.356,948.047 194.5,949.5C 197.188,952.912 199.855,956.245 202.5,959.5C 209.109,958.708 212.775,955.042 213.5,948.5 Z"/></g>
<g><path style="opacity:0.999" fill="#aa85fe" d="M 218.5,950.5 C 223.906,953.535 229.572,956.035 235.5,958C 239.259,962.044 243.926,963.544 249.5,962.5C 250.322,969.863 247.322,974.863 240.5,977.5C 238.841,972.507 235.507,969.174 230.5,967.5C 223.016,969.914 222.016,973.747 227.5,979C 230.536,981.006 233.869,981.84 237.5,981.5C 238.093,989.983 234.76,996.316 227.5,1000.5C 224.75,993.565 219.75,990.732 212.5,992C 208.607,995.588 208.607,999.254 212.5,1003C 216.269,1005.51 220.269,1006.01 224.5,1004.5C 226.582,1011.42 224.915,1017.25 219.5,1022C 217.057,1021.91 215.39,1020.58 214.5,1018C 210.107,1014.55 205.274,1013.72 200,1015.5C 199.169,1023.18 202.669,1027.51 210.5,1028.5C 212.512,1028.16 214.512,1027.83 216.5,1027.5C 216.053,1037.4 211.72,1045.06 203.5,1050.5C 200.833,1049.5 198.167,1048.5 195.5,1047.5C 195.047,1046.54 194.381,1045.71 193.5,1045C 183.446,1039.98 173.779,1034.48 164.5,1028.5C 174.001,1023.32 179.667,1015.32 181.5,1004.5C 186.478,999.549 189.644,993.549 191,986.5C 193.175,985.745 195.341,984.912 197.5,984C 203.883,978.105 206.216,970.938 204.5,962.5C 206.541,961.764 208.541,960.931 210.5,960C 213.325,956.774 215.991,953.607 218.5,950.5 Z"/></g>
<g><path style="opacity:1" fill="#b08dfd" d="M 191.5,952.5 C 193.809,953.388 195.476,955.054 196.5,957.5C 196.167,957.833 195.833,958.167 195.5,958.5C 193.167,957.168 191.834,955.168 191.5,952.5 Z"/></g>
<g><path style="opacity:1" fill="#ac88fe" d="M 144.5,957.5 C 149.416,958.086 152.416,960.753 153.5,965.5C 146.454,966.775 143.454,964.109 144.5,957.5 Z"/></g>
<g><path style="opacity:1" fill="#af8cfd" d="M 100.5,958.5 C 105.298,959.275 107.298,961.942 106.5,966.5C 102.111,968.305 99.4446,966.805 98.5,962C 98.9783,960.697 99.645,959.531 100.5,958.5 Z"/></g>
<g><path style="opacity:0.995" fill="#a985fe" d="M 321.5,961.5 C 325.535,963.848 329.535,966.182 333.5,968.5C 334.938,979.308 331.104,987.975 322,994.5C 319.501,989.994 315.834,986.994 311,985.5C 305.859,986.911 304.192,990.245 306,995.5C 309.447,999.399 313.614,1000.4 318.5,998.5C 320.267,1005.63 317.767,1010.63 311,1013.5C 308.741,1010.2 305.908,1007.37 302.5,1005C 299.258,1004.01 296.592,1004.85 294.5,1007.5C 292.805,1011.2 293.805,1014.03 297.5,1016C 300.721,1017.28 304.054,1018.11 307.5,1018.5C 307.681,1025.64 305.014,1031.47 299.5,1036C 298.5,1036.67 297.5,1036.67 296.5,1036C 292.952,1029.12 287.786,1026.96 281,1029.5C 278.996,1033.33 279.496,1036.83 282.5,1040C 286.7,1041.37 291.033,1041.87 295.5,1041.5C 296.637,1049.22 293.971,1055.22 287.5,1059.5C 283.524,1052.59 277.69,1049.93 270,1051.5C 269.345,1062.33 274.512,1066.66 285.5,1064.5C 286.183,1070.1 284.849,1075.1 281.5,1079.5C 272.5,1079.5 263.5,1079.5 254.5,1079.5C 246.5,1074.83 238.5,1070.17 230.5,1065.5C 241.822,1061.34 248.656,1053.34 251,1041.5C 255.999,1036.5 259.166,1030.5 260.5,1023.5C 272.003,1019.92 276.003,1012.26 272.5,1000.5C 283.228,996.74 288.228,989.074 287.5,977.5C 294.837,976.162 300.171,972.162 303.5,965.5C 309.435,963.85 315.435,962.516 321.5,961.5 Z"/></g>
<g><path style="opacity:1" fill="#f3edef" d="M 249.5,962.5 C 250.833,962.833 252.167,963.167 253.5,963.5C 253.47,971.703 249.637,977.37 242,980.5C 242.011,990.983 237.511,998.816 228.5,1004C 230.317,1012.88 227.484,1020.05 220,1025.5C 220.038,1031.51 218.705,1037.18 216,1042.5C 213.304,1046.36 210.137,1049.69 206.5,1052.5C 204.973,1052.57 203.973,1051.91 203.5,1050.5C 211.72,1045.06 216.053,1037.4 216.5,1027.5C 214.512,1027.83 212.512,1028.16 210.5,1028.5C 202.669,1027.51 199.169,1023.18 200,1015.5C 205.274,1013.72 210.107,1014.55 214.5,1018C 215.39,1020.58 217.057,1021.91 219.5,1022C 224.915,1017.25 226.582,1011.42 224.5,1004.5C 220.269,1006.01 216.269,1005.51 212.5,1003C 208.607,999.254 208.607,995.588 212.5,992C 219.75,990.732 224.75,993.565 227.5,1000.5C 234.76,996.316 238.093,989.983 237.5,981.5C 233.869,981.84 230.536,981.006 227.5,979C 222.016,973.747 223.016,969.914 230.5,967.5C 235.507,969.174 238.841,972.507 240.5,977.5C 247.322,974.863 250.322,969.863 249.5,962.5 Z"/></g>
<g><path style="opacity:0.996" fill="#aa85fe" d="M 253.5,963.5 C 259.393,965.056 265.393,966.056 271.5,966.5C 272.574,973.741 276.741,977.741 284,978.5C 284.945,987.621 281.111,993.621 272.5,996.5C 269.514,993.504 266.848,990.171 264.5,986.5C 262.629,985.233 260.796,985.233 259,986.5C 258.333,988.833 258.333,991.167 259,993.5C 262.36,996.671 266.027,999.338 270,1001.5C 272.243,1009.63 269.743,1015.63 262.5,1019.5C 261.675,1015.88 261.175,1012.21 261,1008.5C 258.177,1005.43 254.844,1004.76 251,1006.5C 250.333,1008.83 250.333,1011.17 251,1013.5C 252.677,1016.85 254.843,1019.85 257.5,1022.5C 256.506,1028.15 254.173,1033.15 250.5,1037.5C 249.041,1035.42 247.708,1033.25 246.5,1031C 237.887,1026.92 234.387,1029.76 236,1039.5C 238.591,1043.05 242.091,1044.38 246.5,1043.5C 244.217,1054.45 237.551,1061.12 226.5,1063.5C 219.504,1060.34 212.838,1056.67 206.5,1052.5C 210.137,1049.69 213.304,1046.36 216,1042.5C 218.705,1037.18 220.038,1031.51 220,1025.5C 227.484,1020.05 230.317,1012.88 228.5,1004C 237.511,998.816 242.011,990.983 242,980.5C 249.637,977.37 253.47,971.703 253.5,963.5 Z"/></g>
<g><path style="opacity:1" fill="#f4eeee" d="M 297.5,966.5 C 299.265,965.539 301.265,965.205 303.5,965.5C 300.171,972.162 294.837,976.162 287.5,977.5C 288.228,989.074 283.228,996.74 272.5,1000.5C 276.003,1012.26 272.003,1019.92 260.5,1023.5C 259.166,1030.5 255.999,1036.5 251,1041.5C 248.656,1053.34 241.822,1061.34 230.5,1065.5C 228.847,1065.34 227.514,1064.67 226.5,1063.5C 237.551,1061.12 244.217,1054.45 246.5,1043.5C 242.091,1044.38 238.591,1043.05 236,1039.5C 234.387,1029.76 237.887,1026.92 246.5,1031C 247.708,1033.25 249.041,1035.42 250.5,1037.5C 254.173,1033.15 256.506,1028.15 257.5,1022.5C 254.843,1019.85 252.677,1016.85 251,1013.5C 250.333,1011.17 250.333,1008.83 251,1006.5C 254.844,1004.76 258.177,1005.43 261,1008.5C 261.175,1012.21 261.675,1015.88 262.5,1019.5C 269.743,1015.63 272.243,1009.63 270,1001.5C 266.027,999.338 262.36,996.671 259,993.5C 258.333,991.167 258.333,988.833 259,986.5C 260.796,985.233 262.629,985.233 264.5,986.5C 266.848,990.171 269.514,993.504 272.5,996.5C 281.111,993.621 284.945,987.621 284,978.5C 276.741,977.741 272.574,973.741 271.5,966.5C 273.735,966.205 275.735,966.539 277.5,967.5C 275.189,968.961 275.189,970.794 277.5,973C 279.146,974.401 280.813,974.568 282.5,973.5C 281.156,971.471 279.823,969.471 278.5,967.5C 279.833,967.5 281.167,967.5 282.5,967.5C 283.87,970.262 285.703,972.596 288,974.5C 292.551,973.139 296.385,970.639 299.5,967C 298.906,966.536 298.239,966.369 297.5,966.5 Z"/></g>
<g><path style="opacity:1" fill="#ae8afd" d="M 297.5,966.5 C 298.239,966.369 298.906,966.536 299.5,967C 296.385,970.639 292.551,973.139 288,974.5C 285.703,972.596 283.87,970.262 282.5,967.5C 287.507,967.249 292.507,966.916 297.5,966.5 Z"/></g>
<g><path style="opacity:1" fill="#b08efd" d="M 277.5,967.5 C 277.833,967.5 278.167,967.5 278.5,967.5C 279.823,969.471 281.156,971.471 282.5,973.5C 280.813,974.568 279.146,974.401 277.5,973C 275.189,970.794 275.189,968.961 277.5,967.5 Z"/></g>
<g><path style="opacity:1" fill="#f3edef" d="M 333.5,968.5 C 335.027,968.427 336.027,969.094 336.5,970.5C 337.323,982.188 332.823,991.188 323,997.5C 323.915,1007.23 319.915,1013.89 311,1017.5C 311.617,1027.27 307.783,1034.6 299.5,1039.5C 298.816,1044.21 297.982,1048.87 297,1053.5C 295.75,1056.92 293.583,1059.58 290.5,1061.5C 290.263,1067.94 288.596,1073.94 285.5,1079.5C 284.167,1079.5 282.833,1079.5 281.5,1079.5C 284.849,1075.1 286.183,1070.1 285.5,1064.5C 274.512,1066.66 269.345,1062.33 270,1051.5C 277.69,1049.93 283.524,1052.59 287.5,1059.5C 293.971,1055.22 296.637,1049.22 295.5,1041.5C 291.033,1041.87 286.7,1041.37 282.5,1040C 279.496,1036.83 278.996,1033.33 281,1029.5C 287.786,1026.96 292.952,1029.12 296.5,1036C 297.5,1036.67 298.5,1036.67 299.5,1036C 305.014,1031.47 307.681,1025.64 307.5,1018.5C 304.054,1018.11 300.721,1017.28 297.5,1016C 293.805,1014.03 292.805,1011.2 294.5,1007.5C 296.592,1004.85 299.258,1004.01 302.5,1005C 305.908,1007.37 308.741,1010.2 311,1013.5C 317.767,1010.63 320.267,1005.63 318.5,998.5C 313.614,1000.4 309.447,999.399 306,995.5C 304.192,990.245 305.859,986.911 311,985.5C 315.834,986.994 319.501,989.994 322,994.5C 331.104,987.975 334.938,979.308 333.5,968.5 Z"/></g>
<g><path style="opacity:0.994" fill="#aa85fe" d="M 336.5,970.5 C 349.328,976.744 361.662,983.744 373.5,991.5C 372.049,1002.28 366.049,1008.95 355.5,1011.5C 353.947,1006.42 350.947,1002.26 346.5,999C 344.888,998.28 343.388,998.446 342,999.5C 340.397,1008.73 344.231,1013.73 353.5,1014.5C 354.956,1022.33 352.289,1028.16 345.5,1032C 343.833,1032.67 342.167,1032.67 340.5,1032C 338.639,1028.6 336.305,1025.6 333.5,1023C 327.609,1022.64 326.109,1025.14 329,1030.5C 331.445,1033.64 334.612,1035.64 338.5,1036.5C 341.38,1042.46 340.88,1048.13 337,1053.5C 335.416,1054.86 333.582,1055.53 331.5,1055.5C 331.837,1051.69 331.337,1048.03 330,1044.5C 327.24,1042.3 324.24,1041.96 321,1043.5C 319.872,1049.91 322.039,1054.91 327.5,1058.5C 326.339,1064.49 323.839,1069.82 320,1074.5C 318.157,1066.83 313.657,1064.33 306.5,1067C 303.606,1071.7 304.273,1075.87 308.5,1079.5C 300.833,1079.5 293.167,1079.5 285.5,1079.5C 288.596,1073.94 290.263,1067.94 290.5,1061.5C 293.583,1059.58 295.75,1056.92 297,1053.5C 297.982,1048.87 298.816,1044.21 299.5,1039.5C 307.783,1034.6 311.617,1027.27 311,1017.5C 319.915,1013.89 323.915,1007.23 323,997.5C 332.823,991.188 337.323,982.188 336.5,970.5 Z"/></g>
<g><path style="opacity:1" fill="#af8cfd" d="M 228.5,971.5 C 232.547,971.535 235.214,973.535 236.5,977.5C 233.641,978.599 230.974,978.099 228.5,976C 227.272,974.51 227.272,973.01 228.5,971.5 Z"/></g>
<g><path style="opacity:1" fill="#ad89fe" d="M 184.5,971.5 C 185.583,971.539 186.583,971.873 187.5,972.5C 189.353,982.715 188.019,983.048 183.5,973.5C 183.863,972.817 184.196,972.15 184.5,971.5 Z"/></g>
<g><path style="opacity:1" fill="#b08dfd" d="M 132.5,980.5 C 138.66,980.228 142.66,982.895 144.5,988.5C 140.484,989.1 136.984,988.1 134,985.5C 132.991,983.975 132.491,982.308 132.5,980.5 Z"/></g>
<g><path style="opacity:1" fill="#b594fc" d="M 261.5,988.5 C 264.239,990.334 265.573,992.668 265.5,995.5C 262.453,994.125 261.12,991.792 261.5,988.5 Z"/></g>
<g><path style="opacity:1" fill="#ae8bfd" d="M 308.5,989.5 C 310.527,989.338 312.527,989.505 314.5,990C 320.339,995.176 319.339,997.176 311.5,996C 309.081,994.491 308.081,992.325 308.5,989.5 Z"/></g>
<g><path style="opacity:1" fill="#f4eeef" d="M 373.5,991.5 C 374.609,991.557 375.609,991.89 376.5,992.5C 375.237,1003.93 369.071,1011.26 358,1014.5C 358.229,1021.82 355.729,1027.99 350.5,1033C 348.091,1034.71 345.425,1035.54 342.5,1035.5C 346.134,1047.63 342.134,1055.97 330.5,1060.5C 328.463,1067.58 325.129,1073.91 320.5,1079.5C 316.5,1079.5 312.5,1079.5 308.5,1079.5C 304.273,1075.87 303.606,1071.7 306.5,1067C 313.657,1064.33 318.157,1066.83 320,1074.5C 323.839,1069.82 326.339,1064.49 327.5,1058.5C 322.039,1054.91 319.872,1049.91 321,1043.5C 324.24,1041.96 327.24,1042.3 330,1044.5C 331.337,1048.03 331.837,1051.69 331.5,1055.5C 333.582,1055.53 335.416,1054.86 337,1053.5C 340.88,1048.13 341.38,1042.46 338.5,1036.5C 334.612,1035.64 331.445,1033.64 329,1030.5C 326.109,1025.14 327.609,1022.64 333.5,1023C 336.305,1025.6 338.639,1028.6 340.5,1032C 342.167,1032.67 343.833,1032.67 345.5,1032C 352.289,1028.16 354.956,1022.33 353.5,1014.5C 344.231,1013.73 340.397,1008.73 342,999.5C 343.388,998.446 344.888,998.28 346.5,999C 350.947,1002.26 353.947,1006.42 355.5,1011.5C 366.049,1008.95 372.049,1002.28 373.5,991.5 Z"/></g>
<g><path style="opacity:0.994" fill="#aa85fe" d="M 376.5,992.5 C 385.454,997.471 394.12,1002.8 402.5,1008.5C 403.794,1017.52 400.794,1024.68 393.5,1030C 392.365,1030.75 391.365,1030.58 390.5,1029.5C 387.12,1023.04 382.287,1021.37 376,1024.5C 374.996,1027.99 375.496,1031.16 377.5,1034C 381.363,1035.35 385.363,1035.85 389.5,1035.5C 389.787,1042.61 386.787,1047.61 380.5,1050.5C 378.635,1046.96 375.968,1044.12 372.5,1042C 366.166,1040.67 363.332,1043.17 364,1049.5C 367.43,1053.92 371.93,1055.58 377.5,1054.5C 377.932,1062.91 374.598,1069.24 367.5,1073.5C 364.952,1069.79 361.618,1066.95 357.5,1065C 351.171,1064.33 348.671,1067.17 350,1073.5C 350.465,1074.93 351.299,1076.1 352.5,1077C 356.573,1078.03 360.573,1078.86 364.5,1079.5C 349.833,1079.5 335.167,1079.5 320.5,1079.5C 325.129,1073.91 328.463,1067.58 330.5,1060.5C 342.134,1055.97 346.134,1047.63 342.5,1035.5C 345.425,1035.54 348.091,1034.71 350.5,1033C 355.729,1027.99 358.229,1021.82 358,1014.5C 369.071,1011.26 375.237,1003.93 376.5,992.5 Z"/></g>
<g><path style="opacity:1" fill="#af8cfd" d="M 213.5,994.5 C 218.788,994.358 221.955,996.692 223,1001.5C 218.203,1003.19 214.703,1001.69 212.5,997C 212.743,996.098 213.077,995.265 213.5,994.5 Z"/></g>
<g><path style="opacity:1" fill="#ad89fe" d="M 169.5,995.5 C 173.954,995.612 176.621,997.945 177.5,1002.5C 170.309,1004.97 167.643,1002.64 169.5,995.5 Z"/></g>
<g><path style="opacity:1" fill="#b290fd" d="M 344.5,1002.5 C 348.938,1004.23 351.272,1007.23 351.5,1011.5C 346.986,1010.12 344.653,1007.12 344.5,1002.5 Z"/></g>
<g><path style="opacity:1" fill="#ac88fe" d="M 253.5,1008.5 C 255.39,1008.3 256.89,1008.96 258,1010.5C 258.667,1012.83 258.667,1015.17 258,1017.5C 254.893,1015.29 253.393,1012.29 253.5,1008.5 Z"/></g>
<g><path style="opacity:1" fill="#af8dfd" d="M 297.5,1008.5 C 301.866,1008.02 304.866,1009.86 306.5,1014C 302.27,1015.25 298.936,1014.08 296.5,1010.5C 296.863,1009.82 297.196,1009.15 297.5,1008.5 Z"/></g>
<g><path style="opacity:1" fill="#f3edef" d="M 402.5,1008.5 C 404.153,1008.66 405.486,1009.33 406.5,1010.5C 406.034,1020.44 401.701,1028.11 393.5,1033.5C 393.967,1041.06 391.301,1047.23 385.5,1052C 383.975,1053.01 382.308,1053.51 380.5,1053.5C 381.451,1063.6 377.618,1071.26 369,1076.5C 368.517,1077.45 368.351,1078.45 368.5,1079.5C 367.167,1079.5 365.833,1079.5 364.5,1079.5C 360.573,1078.86 356.573,1078.03 352.5,1077C 351.299,1076.1 350.465,1074.93 350,1073.5C 348.671,1067.17 351.171,1064.33 357.5,1065C 361.618,1066.95 364.952,1069.79 367.5,1073.5C 374.598,1069.24 377.932,1062.91 377.5,1054.5C 371.93,1055.58 367.43,1053.92 364,1049.5C 363.332,1043.17 366.166,1040.67 372.5,1042C 375.968,1044.12 378.635,1046.96 380.5,1050.5C 386.787,1047.61 389.787,1042.61 389.5,1035.5C 385.363,1035.85 381.363,1035.35 377.5,1034C 375.496,1031.16 374.996,1027.99 376,1024.5C 382.287,1021.37 387.12,1023.04 390.5,1029.5C 391.365,1030.58 392.365,1030.75 393.5,1030C 400.794,1024.68 403.794,1017.52 402.5,1008.5 Z"/></g>
<g><path style="opacity:0.989" fill="#a984fe" d="M 406.5,1010.5 C 419.004,1017.25 431.337,1024.25 443.5,1031.5C 441.199,1037.31 437.532,1042.14 432.5,1046C 430.863,1046.6 429.197,1047.1 427.5,1047.5C 423.846,1043.05 419.846,1038.88 415.5,1035C 414.365,1034.25 413.365,1034.42 412.5,1035.5C 410.198,1044.89 413.865,1050.22 423.5,1051.5C 424.743,1059.65 421.743,1065.48 414.5,1069C 413.167,1069.67 411.833,1069.67 410.5,1069C 408.892,1065.73 406.892,1062.73 404.5,1060C 397.659,1058.2 395.826,1060.7 399,1067.5C 401.445,1070.64 404.612,1072.64 408.5,1073.5C 409.372,1075.45 410.039,1077.45 410.5,1079.5C 396.5,1079.5 382.5,1079.5 368.5,1079.5C 368.351,1078.45 368.517,1077.45 369,1076.5C 377.618,1071.26 381.451,1063.6 380.5,1053.5C 382.308,1053.51 383.975,1053.01 385.5,1052C 391.301,1047.23 393.967,1041.06 393.5,1033.5C 401.701,1028.11 406.034,1020.44 406.5,1010.5 Z"/></g>
<g><path style="opacity:1" fill="#af8dfd" d="M 202.5,1017.5 C 205.794,1017.26 208.794,1018.09 211.5,1020C 215.595,1022.57 215.428,1024.41 211,1025.5C 205.816,1025.18 202.982,1022.52 202.5,1017.5 Z"/></g>
<g><path style="opacity:1" fill="#ac88fe" d="M 379.5,1025.5 C 383.737,1025.9 386.737,1028.06 388.5,1032C 385.833,1032.67 383.167,1032.67 380.5,1032C 378.316,1030.1 377.983,1027.94 379.5,1025.5 Z"/></g>
<g><path style="opacity:1" fill="#b595fc" d="M 331.5,1025.5 C 334.046,1027.28 335.546,1029.61 336,1032.5C 332.651,1031.32 331.151,1028.99 331.5,1025.5 Z"/></g>
<g><path style="opacity:1" fill="#ab87fe" d="M 283.5,1031.5 C 288.06,1031.38 291.394,1033.38 293.5,1037.5C 288.618,1039.62 284.951,1038.45 282.5,1034C 282.743,1033.1 283.077,1032.26 283.5,1031.5 Z"/></g>
<g><path style="opacity:1" fill="#ab87fe" d="M 239.5,1032.5 C 244.58,1032.62 246.913,1035.29 246.5,1040.5C 239.762,1041.44 237.429,1038.77 239.5,1032.5 Z"/></g>
<g><path style="opacity:1" fill="#f3edef" d="M 443.5,1031.5 C 444.492,1031.33 445.158,1031.66 445.5,1032.5C 443.126,1042.21 437.126,1048.21 427.5,1050.5C 428.27,1057.29 426.436,1063.29 422,1068.5C 419.297,1070.9 416.13,1072.24 412.5,1072.5C 412.993,1074.81 413.326,1077.14 413.5,1079.5C 412.5,1079.5 411.5,1079.5 410.5,1079.5C 410.039,1077.45 409.372,1075.45 408.5,1073.5C 404.612,1072.64 401.445,1070.64 399,1067.5C 395.826,1060.7 397.659,1058.2 404.5,1060C 406.892,1062.73 408.892,1065.73 410.5,1069C 411.833,1069.67 413.167,1069.67 414.5,1069C 421.743,1065.48 424.743,1059.65 423.5,1051.5C 413.865,1050.22 410.198,1044.89 412.5,1035.5C 413.365,1034.42 414.365,1034.25 415.5,1035C 419.846,1038.88 423.846,1043.05 427.5,1047.5C 429.197,1047.1 430.863,1046.6 432.5,1046C 437.532,1042.14 441.199,1037.31 443.5,1031.5 Z"/></g>
<g><path style="opacity:0.989" fill="#aa85fe" d="M 445.5,1032.5 C 454.777,1037.14 463.777,1042.14 472.5,1047.5C 472.996,1056.51 469.329,1063.18 461.5,1067.5C 459.312,1064.48 456.645,1061.98 453.5,1060C 444.23,1059.61 442.23,1063.28 447.5,1071C 451.026,1072.34 454.692,1072.84 458.5,1072.5C 458.5,1074.83 458.5,1077.17 458.5,1079.5C 443.5,1079.5 428.5,1079.5 413.5,1079.5C 413.326,1077.14 412.993,1074.81 412.5,1072.5C 416.13,1072.24 419.297,1070.9 422,1068.5C 426.436,1063.29 428.27,1057.29 427.5,1050.5C 437.126,1048.21 443.126,1042.21 445.5,1032.5 Z"/></g>
<g><path style="opacity:1" fill="#b291fd" d="M 414.5,1038.5 C 418.681,1040.94 421.014,1044.27 421.5,1048.5C 416.741,1046.76 414.407,1043.42 414.5,1038.5 Z"/></g>
<g><path style="opacity:1" fill="#af8dfd" d="M 323.5,1045.5 C 324.978,1045.24 326.311,1045.57 327.5,1046.5C 328.562,1049.1 328.728,1051.77 328,1054.5C 324.893,1052.29 323.393,1049.29 323.5,1045.5 Z"/></g>
<g><path style="opacity:1" fill="#ad89fe" d="M 368.5,1044.5 C 372.012,1045 374.345,1047 375.5,1050.5C 371.908,1051.55 368.908,1050.55 366.5,1047.5C 367.193,1046.48 367.859,1045.48 368.5,1044.5 Z"/></g>
<g><path style="opacity:1" fill="#f3edef" d="M 472.5,1047.5 C 473.609,1047.56 474.609,1047.89 475.5,1048.5C 475.211,1058.08 471.045,1065.41 463,1070.5C 462.502,1073.48 462.335,1076.48 462.5,1079.5C 461.167,1079.5 459.833,1079.5 458.5,1079.5C 458.5,1077.17 458.5,1074.83 458.5,1072.5C 454.692,1072.84 451.026,1072.34 447.5,1071C 442.23,1063.28 444.23,1059.61 453.5,1060C 456.645,1061.98 459.312,1064.48 461.5,1067.5C 469.329,1063.18 472.996,1056.51 472.5,1047.5 Z"/></g>
<g><path style="opacity:0.976" fill="#a985fe" d="M 475.5,1048.5 C 488.306,1054.07 500.639,1060.4 512.5,1067.5C 511.558,1072.05 509.558,1076.05 506.5,1079.5C 501.833,1079.5 497.167,1079.5 492.5,1079.5C 490.665,1075.82 487.832,1073.16 484,1071.5C 483.228,1071.64 482.561,1071.98 482,1072.5C 481.503,1074.81 481.337,1077.14 481.5,1079.5C 475.167,1079.5 468.833,1079.5 462.5,1079.5C 462.335,1076.48 462.502,1073.48 463,1070.5C 471.045,1065.41 475.211,1058.08 475.5,1048.5 Z"/></g>
<g><path style="opacity:1" fill="#ad89fe" d="M 272.5,1054.5 C 277.78,1054.03 281.78,1056.03 284.5,1060.5C 277.891,1063.2 273.891,1061.2 272.5,1054.5 Z"/></g>
<g><path style="opacity:1" fill="#ab87fe" d="M 448.5,1062.5 C 453.006,1062.25 456.006,1064.25 457.5,1068.5C 451.216,1071.2 448.216,1069.2 448.5,1062.5 Z"/></g>
<g><path style="opacity:1" fill="#b594fc" d="M 400.5,1062.5 C 403.915,1063.36 405.248,1065.36 404.5,1068.5C 402.167,1067.17 400.834,1065.17 400.5,1062.5 Z"/></g>
<g><path style="opacity:1" fill="#ae8bfd" d="M 353.5,1067.5 C 358.242,1067.87 361.576,1070.2 363.5,1074.5C 355.998,1077.29 352.665,1074.95 353.5,1067.5 Z"/></g>
<g><path style="opacity:1" fill="#f3ecef" d="M 512.5,1067.5 C 513.609,1067.56 514.609,1067.89 515.5,1068.5C 514.642,1072.55 512.975,1076.21 510.5,1079.5C 509.167,1079.5 507.833,1079.5 506.5,1079.5C 509.558,1076.05 511.558,1072.05 512.5,1067.5 Z"/></g>
<g><path style="opacity:0.869" fill="#aa85fe" d="M 515.5,1068.5 C 520.2,1070.69 524.2,1073.86 527.5,1078C 526.584,1078.28 525.918,1078.78 525.5,1079.5C 520.5,1079.5 515.5,1079.5 510.5,1079.5C 512.975,1076.21 514.642,1072.55 515.5,1068.5 Z"/></g>
<g><path style="opacity:1" fill="#af8cfd" d="M 309.5,1068.5 C 314.542,1069.35 316.542,1072.19 315.5,1077C 308.781,1077.73 306.781,1074.89 309.5,1068.5 Z"/></g>
<g><path style="opacity:1" fill="#f5efef" d="M 492.5,1079.5 C 491.167,1079.5 489.833,1079.5 488.5,1079.5C 485.975,1074.8 484.642,1074.8 484.5,1079.5C 483.5,1079.5 482.5,1079.5 481.5,1079.5C 481.337,1077.14 481.503,1074.81 482,1072.5C 482.561,1071.98 483.228,1071.64 484,1071.5C 487.832,1073.16 490.665,1075.82 492.5,1079.5 Z"/></g>
<g><path style="opacity:1" fill="#af8dfd" d="M 488.5,1079.5 C 487.167,1079.5 485.833,1079.5 484.5,1079.5C 484.642,1074.8 485.975,1074.8 488.5,1079.5 Z"/></g>
</svg>
